<svg data-v-423bf9ae="" xmlns="http://www.w3.org/2000/svg" viewBox="0 0 215.30936303747612 60" class="font"><!----><!----><defs data-v-423bf9ae=""><linearGradient data-v-423bf9ae="" gradientTransform="rotate(25)" id="104fcb41-0e77-4de9-904f-ff544d878786" x1="0%" y1="0%" x2="100%" y2="0%"><stop data-v-423bf9ae="" offset="0%" style="stop-color: rgb(1, 100, 139); stop-opacity: 1;"></stop><stop data-v-423bf9ae="" offset="100%" style="stop-color: rgb(91, 208, 164); stop-opacity: 1;"></stop></linearGradient></defs><g data-v-423bf9ae="" id="62f9f1ab-c4df-4bbb-97c4-5f083d117038" fill="url(#104fcb41-0e77-4de9-904f-ff544d878786)" transform="matrix(4.316546881052659,0,0,4.316546881052659,-0.7769762194526493,-1.3381299606502886)"><path d="M3.26 10.50L3.26 10.50Q2.59 10.50 1.86 10.06L1.86 10.06L1.86 10.06Q1.13 9.62 0.66 8.97L0.66 8.97L0.66 8.97Q0.18 8.33 0.18 7.76L0.18 7.76L0.18 7.76Q0.18 6.73 0.67 5.52L0.67 5.52L0.67 5.52Q1.15 4.30 2.00 3.45L2.00 3.45L2.00 3.45Q2.86 2.60 3.93 2.60L3.93 2.60L3.93 2.60Q4.70 2.60 5.33 2.94L5.33 2.94L5.33 2.94Q5.95 3.28 6.30 3.78L6.30 3.78L6.30 3.78Q6.65 4.28 6.65 4.76L6.65 4.76L6.65 4.76Q6.65 5.35 6.12 5.92L6.12 5.92L6.12 5.92Q5.59 6.48 4.63 6.91L4.63 6.91L4.63 6.91Q3.68 7.34 2.46 7.52L2.46 7.52L2.46 7.52Q2.45 7.69 2.45 8.02L2.45 8.02L2.45 8.02Q2.45 8.44 2.48 8.65L2.48 8.65L2.48 8.65Q3.18 8.58 3.86 8.27L3.86 8.27L3.86 8.27Q4.55 7.97 5.36 7.41L5.36 7.41L5.36 7.41Q5.91 7.57 6.19 7.94L6.19 7.94L6.19 7.94Q6.47 8.30 6.47 8.81L6.47 8.81L6.47 8.81Q6.47 9.23 5.96 9.63L5.96 9.63L5.96 9.63Q5.45 10.02 4.69 10.26L4.69 10.26L4.69 10.26Q3.93 10.50 3.26 10.50L3.26 10.50ZM2.67 6.47L2.67 6.47Q3.53 6.16 4.10 5.68L4.10 5.68L4.10 5.68Q4.68 5.21 4.68 4.87L4.68 4.87L4.68 4.87Q4.68 4.48 4.13 4.34L4.13 4.34L4.13 4.34Q3.60 4.73 3.23 5.28L3.23 5.28L3.23 5.28Q2.86 5.82 2.67 6.47L2.67 6.47ZM12.50 2.84L12.50 2.84Q13.24 2.84 13.82 3.19L13.82 3.19L13.82 3.19Q14.39 3.54 14.71 4.15L14.71 4.15L14.71 4.15Q15.02 4.76 15.02 5.52L15.02 5.52L15.02 5.52Q15.02 6.64 14.39 7.80L14.39 7.80L14.39 7.80Q13.75 8.97 12.72 9.74L12.72 9.74L12.72 9.74Q11.69 10.50 10.58 10.50L10.58 10.50L10.58 10.50Q10.11 10.50 9.63 10.12L9.63 10.12L9.63 10.12Q9.46 10.82 9.37 11.56L9.37 11.56L9.37 11.56Q9.28 12.29 9.27 12.42L9.27 12.42L9.27 12.42Q9.16 13.37 9.05 13.79L9.05 13.79L9.05 13.79Q8.95 14.21 8.72 14.21L8.72 14.21L8.72 14.21Q8.36 14.21 7.92 13.97L7.92 13.97L7.92 13.97Q7.48 13.73 7.16 13.41L7.16 13.41L7.16 13.41Q6.85 13.08 6.85 12.84L6.85 12.84L6.85 12.84Q6.85 12.57 7.08 11.66L7.08 11.66L7.08 11.66Q7.32 10.75 7.81 9.03L7.81 9.03L7.81 9.03Q8.25 7.49 8.48 6.61L8.48 6.61L8.48 6.61Q8.72 5.73 8.72 5.49L8.72 5.49L8.72 5.49Q8.72 5.38 8.60 5.26L8.60 5.26L8.60 5.26Q8.48 5.14 8.22 4.91L8.22 4.91L8.22 4.91Q7.92 4.68 7.78 4.54L7.78 4.54L7.78 4.54Q7.64 4.40 7.64 4.24L7.64 4.24L7.64 4.24Q7.64 3.95 7.92 3.56L7.92 3.56L7.92 3.56Q8.19 3.16 8.56 2.88L8.56 2.88L8.56 2.88Q8.93 2.60 9.20 2.60L9.20 2.60L9.20 2.60Q9.60 2.60 10.12 3.05L10.12 3.05L10.12 3.05Q10.64 3.50 10.86 3.95L10.86 3.95L11.41 3.02L11.41 3.02Q11.96 2.84 12.50 2.84L12.50 2.84ZM10.58 8.71L10.58 8.71Q11.03 8.71 11.56 8.24L11.56 8.24L11.56 8.24Q12.10 7.77 12.46 7.08L12.46 7.08L12.46 7.08Q12.82 6.38 12.82 5.75L12.82 5.75L12.82 5.75Q12.82 5.29 12.60 5.04L12.60 5.04L12.60 5.04Q12.38 4.79 11.96 4.79L11.96 4.79L11.96 4.79Q11.47 4.79 11.07 5.34L11.07 5.34L11.07 5.34Q10.67 5.89 10.44 6.69L10.44 6.69L10.44 6.69Q10.21 7.49 10.21 8.16L10.21 8.16L10.21 8.16Q10.21 8.43 10.31 8.57L10.31 8.57L10.31 8.57Q10.42 8.71 10.58 8.71L10.58 8.71ZM18.87 2.59L18.87 2.59Q19.87 2.70 20.69 3.18L20.69 3.18L20.69 3.18Q21.50 3.67 21.97 4.34L21.97 4.34L21.97 4.34Q22.43 5.01 22.43 5.68L22.43 5.68L22.43 5.68Q22.43 6.69 21.91 7.83L21.91 7.83L21.91 7.83Q21.39 8.96 20.47 9.73L20.47 9.73L20.47 9.73Q19.54 10.50 18.41 10.50L18.41 10.50L18.41 10.50Q17.85 10.50 17.22 10.09L17.22 10.09L17.22 10.09Q16.59 9.67 16.16 9.08L16.16 9.08L16.16 9.08Q15.74 8.48 15.74 8.02L15.74 8.02L15.74 8.02Q15.74 7.17 15.95 6.26L15.95 6.26L15.95 6.26Q16.16 5.36 16.59 4.51L16.59 4.51L16.59 4.51Q17.00 4.28 17.40 4.28L17.40 4.28L17.40 4.28Q17.58 4.28 17.74 4.33L17.74 4.33L17.74 4.33Q17.68 4.16 17.68 3.93L17.68 3.93L17.68 3.93Q17.68 3.49 18.00 3.12L18.00 3.12L18.00 3.12Q18.31 2.76 18.87 2.59L18.87 2.59ZM17.91 8.90L17.91 8.90Q19.07 8.51 19.71 7.56L19.71 7.56L19.71 7.56Q20.36 6.61 20.57 5.29L20.57 5.29L20.57 5.29Q19.94 4.84 18.86 4.84L18.86 4.84L18.86 4.84Q18.59 4.84 18.45 4.86L18.45 4.86L18.45 4.86Q18.61 5.14 18.61 5.49L18.61 5.49L18.61 5.49Q18.24 6.06 18.05 6.75L18.05 6.75L18.05 6.75Q17.85 7.45 17.85 8.15L17.85 8.15L17.85 8.15Q17.85 8.57 17.91 8.90L17.91 8.90ZM27.12 4.27L27.12 4.27Q26.49 4.75 26.10 5.21L26.10 5.21L26.10 5.21Q25.72 5.67 25.72 5.99L25.72 5.99L25.72 5.99Q25.72 6.15 25.98 6.31L25.98 6.31L25.98 6.31Q26.25 6.47 26.87 6.75L26.87 6.75L26.87 6.75Q27.85 7.20 28.41 7.58L28.41 7.58L28.41 7.58Q28.97 7.97 28.97 8.47L28.97 8.47L28.97 8.47Q28.97 8.97 28.40 9.44L28.40 9.44L28.40 9.44Q27.83 9.91 26.99 10.21L26.99 10.21L26.99 10.21Q26.15 10.50 25.42 10.50L25.42 10.50L25.42 10.50Q24.88 10.50 24.28 10.27L24.28 10.27L24.28 10.27Q23.67 10.04 23.27 9.68L23.27 9.68L23.27 9.68Q22.86 9.32 22.86 9.00L22.86 9.00L22.86 9.00Q22.86 8.43 23.23 8.09L23.23 8.09L23.23 8.09Q23.60 7.74 24.21 7.74L24.21 7.74L24.21 7.74Q24.49 7.74 24.78 7.83L24.78 7.83L24.78 7.83Q25.02 8.58 25.19 8.90L25.19 8.90L25.19 8.90Q26.04 8.68 26.71 8.15L26.71 8.15L26.71 8.15Q25.54 7.64 24.56 7.01L24.56 7.01L24.56 7.01Q23.59 6.38 23.59 5.84L23.59 5.84L23.59 5.84Q23.59 5.28 24.11 4.50L24.11 4.50L24.11 4.50Q24.63 3.72 25.43 3.16L25.43 3.16L25.43 3.16Q26.24 2.59 27.08 2.59L27.08 2.59L27.08 2.59Q27.65 2.59 28.18 2.93L28.18 2.93L28.18 2.93Q28.70 3.26 29.02 3.77L29.02 3.77L29.02 3.77Q29.34 4.27 29.34 4.75L29.34 4.75L29.34 4.75Q29.34 5.21 28.99 5.50L28.99 5.50L28.99 5.50Q28.63 5.78 28.08 5.78L28.08 5.78L28.08 5.78Q27.73 5.78 27.37 5.64L27.37 5.64L27.37 5.64Q27.34 5.08 27.12 4.27L27.12 4.27ZM35.21 4.91L33.12 5.00L33.12 5.00Q32.66 7.11 32.52 8.44L32.52 8.44L32.52 8.44Q33.42 8.01 33.96 7.55L33.96 7.55L33.96 7.55Q34.58 7.76 34.88 8.13L34.88 8.13L34.88 8.13Q35.18 8.50 35.18 8.97L35.18 8.97L35.18 8.97Q35.18 9.31 34.71 9.67L34.71 9.67L34.71 9.67Q34.23 10.02 33.57 10.26L33.57 10.26L33.57 10.26Q32.91 10.50 32.45 10.50L32.45 10.50L32.45 10.50Q32.05 10.50 31.55 10.26L31.55 10.26L31.55 10.26Q31.05 10.01 30.70 9.68L30.70 9.68L30.70 9.68Q30.35 9.35 30.35 9.11L30.35 9.11L30.35 9.11Q30.35 8.92 30.50 8.27L30.50 8.27L30.50 8.27Q30.65 7.62 30.77 7.15L30.77 7.15L30.77 7.15Q30.88 6.68 30.94 6.45L30.94 6.45L31.28 5.11L30.42 5.17L30.42 5.17Q30.18 5.05 30.06 4.82L30.06 4.82L30.06 4.82Q29.93 4.58 29.93 4.27L29.93 4.27L29.93 4.27Q29.93 3.71 30.34 3.32L30.34 3.32L30.34 3.32Q30.84 3.35 31.57 3.37L31.57 3.37L31.57 3.37Q31.57 2.48 31.77 1.39L31.77 1.39L31.77 1.39Q31.96 0.31 32.20 0.31L32.20 0.31L32.20 0.31Q32.49 0.31 32.94 0.56L32.94 0.56L32.94 0.56Q33.39 0.81 33.73 1.15L33.73 1.15L33.73 1.15Q34.06 1.48 34.06 1.74L34.06 1.74L34.06 1.74Q34.06 2.06 33.94 2.39L33.94 2.39L33.94 2.39Q33.82 2.72 33.56 3.29L33.56 3.29L33.56 3.29Q33.80 3.26 34.76 3.09L34.76 3.09L35.08 3.04L35.08 3.04Q35.34 3.18 35.47 3.44L35.47 3.44L35.47 3.44Q35.60 3.71 35.60 4.02L35.60 4.02L35.60 4.02Q35.60 4.27 35.50 4.51L35.50 4.51L35.50 4.51Q35.41 4.75 35.21 4.91L35.21 4.91ZM39.17 10.50L39.17 10.50Q38.50 10.50 37.77 10.06L37.77 10.06L37.77 10.06Q37.04 9.62 36.57 8.97L36.57 8.97L36.57 8.97Q36.09 8.33 36.09 7.76L36.09 7.76L36.09 7.76Q36.09 6.73 36.58 5.52L36.58 5.52L36.58 5.52Q37.06 4.30 37.91 3.45L37.91 3.45L37.91 3.45Q38.77 2.60 39.84 2.60L39.84 2.60L39.84 2.60Q40.61 2.60 41.24 2.94L41.24 2.94L41.24 2.94Q41.86 3.28 42.21 3.78L42.21 3.78L42.21 3.78Q42.56 4.28 42.56 4.76L42.56 4.76L42.56 4.76Q42.56 5.35 42.03 5.92L42.03 5.92L42.03 5.92Q41.50 6.48 40.54 6.91L40.54 6.91L40.54 6.91Q39.59 7.34 38.37 7.52L38.37 7.52L38.37 7.52Q38.36 7.69 38.36 8.02L38.36 8.02L38.36 8.02Q38.36 8.44 38.39 8.65L38.39 8.65L38.39 8.65Q39.09 8.58 39.77 8.27L39.77 8.27L39.77 8.27Q40.46 7.97 41.27 7.41L41.27 7.41L41.27 7.41Q41.82 7.57 42.10 7.94L42.10 7.94L42.10 7.94Q42.38 8.30 42.38 8.81L42.38 8.81L42.38 8.81Q42.38 9.23 41.87 9.63L41.87 9.63L41.87 9.63Q41.36 10.02 40.60 10.26L40.60 10.26L40.60 10.26Q39.84 10.50 39.17 10.50L39.17 10.50ZM38.58 6.47L38.58 6.47Q39.44 6.16 40.01 5.68L40.01 5.68L40.01 5.68Q40.59 5.21 40.59 4.87L40.59 4.87L40.59 4.87Q40.59 4.48 40.04 4.34L40.04 4.34L40.04 4.34Q39.51 4.73 39.14 5.28L39.14 5.28L39.14 5.28Q38.77 5.82 38.58 6.47L38.58 6.47ZM45.68 10.50L45.68 10.50Q45.30 10.50 44.86 10.26L44.86 10.26L44.86 10.26Q44.41 10.01 44.09 9.68L44.09 9.68L44.09 9.68Q43.76 9.35 43.76 9.13L43.76 9.13L43.76 9.13Q43.76 8.86 43.88 8.44L43.88 8.44L43.88 8.44Q43.99 8.01 44.21 7.32L44.21 7.32L44.21 7.32Q44.44 6.61 44.55 6.18L44.55 6.18L44.55 6.18Q44.66 5.75 44.66 5.49L44.66 5.49L44.66 5.49Q44.66 5.38 44.53 5.25L44.53 5.25L44.53 5.25Q44.41 5.12 44.14 4.91L44.14 4.91L44.14 4.91Q43.83 4.66 43.69 4.52L43.69 4.52L43.69 4.52Q43.55 4.38 43.55 4.24L43.55 4.24L43.55 4.24Q43.55 3.95 43.83 3.56L43.83 3.56L43.83 3.56Q44.11 3.16 44.49 2.88L44.49 2.88L44.49 2.88Q44.87 2.60 45.14 2.60L45.14 2.60L45.14 2.60Q45.43 2.60 45.81 2.87L45.81 2.87L45.81 2.87Q46.19 3.14 46.47 3.48L46.47 3.48L46.47 3.48Q46.75 3.82 46.75 4.00L46.75 4.00L46.75 4.00Q46.75 4.54 46.54 5.40L46.54 5.40L46.70 5.49L46.70 5.49Q47.03 4.97 47.41 4.25L47.41 4.25L47.41 4.25Q47.80 3.53 47.88 3.36L47.88 3.36L48.15 2.86L48.15 2.86Q49.11 2.83 49.59 3.21L49.59 3.21L49.59 3.21Q50.06 3.58 50.06 4.21L50.06 4.21L50.06 4.21Q50.06 4.83 49.66 5.45L49.66 5.45L49.66 5.45Q48.65 5.78 47.94 6.11L47.94 6.11L47.94 6.11Q47.24 6.44 46.52 6.89L46.52 6.89L46.52 6.89Q46.48 8.44 46.28 9.47L46.28 9.47L46.28 9.47Q46.07 10.50 45.68 10.50L45.68 10.50Z"></path></g><!----><!----></svg>